<svg xmlns="http://www.w3.org/2000/svg" version="1.1" xmlns:xlink="http://www.w3.org/1999/xlink" xmlns:svgjs="http://svgjs.dev/svgjs" width="1000" height="186" viewBox="0 0 1000 186"><g transform="matrix(1,0,0,1,-0.6059806885646708,-0.3576862109960359)"><svg viewBox="0 0 396 74" data-background-color="#ffffff" preserveAspectRatio="xMidYMid meet" height="186" width="1000" xmlns="http://www.w3.org/2000/svg" xmlns:xlink="http://www.w3.org/1999/xlink"><g id="tight-bounds" transform="matrix(1,0,0,1,0.23996835267161032,0.14250692961797995)"><svg viewBox="0 0 395.52 73.71518780364167" height="73.71518780364167" width="395.52"><g><svg viewBox="0 0 499.9094967544123 93.17081927102423" height="73.71518780364167" width="395.52"><g transform="matrix(1,0,0,1,104.38949675441233,0)"><svg viewBox="0 0 395.52 93.17081927102423" height="93.17081927102423" width="395.52"><g id="textblocktransform"><svg viewBox="0 0 395.52 93.17081927102423" height="93.17081927102423" width="395.52" id="textblock"><g><svg viewBox="0 0 395.52 93.17081927102423" height="93.17081927102423" width="395.52"><path d="M394.594 19.983C392.735 10.312 387.435 7.624 387.435 7.624 371.165-2.338 350.86-0.191 332.619 1.241 300.414 1.299 268.339 3.426 236.208 4.568 168.767 4.742 100.749 1.879 33.643 8.939 27.339 11.105-6.54 9.364 1.121 21.221 3.129 26.154 10.456 31.627 10.232 36.153 11.236 36.946 12.631 35.128 13.226 36.269 15.309 39.345 18.711 37.894 21.501 39.712 17.614 44.567 20.403 48.61 23.062 52.846 18.377 53.948 12.371 53.426 9.675 57.082 9.396 59.732 7.89 59.229 6.235 59.113 5.026 59.035 2.59 59.325 2.999 60.157 4.394 63-1.594 64.644 2.162 67.43-0.422 70.447 3.948 73.058 3.353 76.327 3.278 76.985 3.687 77.546 4.338 77.7 7.22 78.532 3.018 80.157 3.464 81.917 33.029 93.948 65.104 85.631 95.394 91.163 103.259 87.294 97.346 92.536 100.489 91.724 102.943 90.776 104.728 94.702 107.499 92.478 107.927 91.84 107.276 90.331 108.8 90.621 109.6 90.776 110.307 90.737 110.418 89.847 110.586 88.513 109.117 89.344 108.726 88.648 112.947 85.128 111.906 93.503 115.866 93.155 115.68 92.13 114.528 90.66 116.889 90.853 119.232 89.383 119.306 88.165 121.389 91.472 121.463 92.188 121.835 92.691 122.43 93.039 128.938 89.441 135.409 94.315 142.233 92.691 146.417 90.911 150.433 93.658 154.672 92.981 156.16 92.439 157.666 91.472 159.098 93.097 176.632 93.445 195.319 91.994 211.943 93.155 256.364 90.989 303.836 94.045 350.674 91.182 361.719 90.079 373.192 88.513 383.958 87.256 383.958 87.256 392.679 83.813 392.679 68.339S394.538 54.799 394.817 42.478C395.096 30.157 396.398 29.654 394.538 19.983Z" opacity="1" fill="#3d3839" data-fill-palette-color="tertiary"></path><g transform="matrix(1,0,0,1,55.76832,26.230666666666668)"><svg width="283.98335999999995" viewBox="4.5 -34.6 245.52 35.2" height="40.70948593769089" data-palette-color="#ffffff"><path d="M8.65 0L4.5 0 4.5-32.8 23.4-32.8 23.4-29.3 8.65-29.3 8.65-18.2 21.15-18.2 21.15-14.7 8.65-14.7 8.65 0ZM31.9 0L27.8 0 27.8-24.3 31.2-24.3 31.55-19.9 31.7-19.9Q32.95-22.2 34.72-23.55 36.5-24.9 38.6-24.9L38.6-24.9Q40.05-24.9 41.2-24.4L41.2-24.4 40.4-20.8Q39.8-21 39.3-21.1 38.8-21.2 38.05-21.2L38.05-21.2Q36.5-21.2 34.82-19.95 33.15-18.7 31.9-15.6L31.9-15.6 31.9 0ZM52.25 0.6L52.25 0.6Q48.34 0.6 46.57-1.8 44.8-4.2 44.8-8.9L44.8-8.9 44.8-24.3 48.95-24.3 48.95-9.45Q48.95-6 50.02-4.48 51.09-2.95 53.5-2.95L53.5-2.95Q55.4-2.95 56.84-3.93 58.3-4.9 60.05-7.05L60.05-7.05 60.05-24.3 64.15-24.3 64.15 0 60.75 0 60.4-3.8 60.25-3.8Q58.55-1.8 56.67-0.6 54.8 0.6 52.25 0.6ZM76.44 0L72.34 0 72.34-24.3 76.44-24.3 76.44 0ZM74.44-29.3L74.44-29.3Q73.24-29.3 72.42-30.05 71.59-30.8 71.59-31.95L71.59-31.95Q71.59-33.15 72.42-33.88 73.24-34.6 74.44-34.6L74.44-34.6Q75.64-34.6 76.47-33.88 77.29-33.15 77.29-31.95L77.29-31.95Q77.29-30.8 76.47-30.05 75.64-29.3 74.44-29.3ZM92.29 0.6L92.29 0.6Q90.34 0.6 89.02 0 87.69-0.6 86.87-1.65 86.04-2.7 85.69-4.2 85.34-5.7 85.34-7.5L85.34-7.5 85.34-20.95 81.74-20.95 81.74-24.05 85.54-24.3 86.04-31.1 89.49-31.1 89.49-24.3 96.04-24.3 96.04-20.95 89.49-20.95 89.49-7.45Q89.49-5.2 90.32-3.98 91.14-2.75 93.24-2.75L93.24-2.75Q93.89-2.75 94.64-2.95 95.39-3.15 95.99-3.4L95.99-3.4 96.79-0.3Q95.79 0.05 94.62 0.33 93.44 0.6 92.29 0.6ZM122.39 0L111.94 0 111.94-32.8 121.69-32.8Q124.19-32.8 126.26-32.35 128.34-31.9 129.81-30.95 131.29-30 132.11-28.48 132.94-26.95 132.94-24.8L132.94-24.8Q132.94-22.35 131.71-20.38 130.49-18.4 128.14-17.65L128.14-17.65 128.14-17.45Q131.14-16.9 132.99-14.95 134.84-13 134.84-9.6L134.84-9.6Q134.84-7.2 133.94-5.4 133.04-3.6 131.39-2.4 129.74-1.2 127.44-0.6 125.14 0 122.39 0L122.39 0ZM116.09-29.5L116.09-18.85 120.94-18.85Q125.14-18.85 126.99-20.3 128.84-21.75 128.84-24.25L128.84-24.25Q128.84-27.1 126.91-28.3 124.99-29.5 121.14-29.5L121.14-29.5 116.09-29.5ZM116.09-15.65L116.09-3.3 121.79-3.3Q126.04-3.3 128.39-4.88 130.74-6.45 130.74-9.75L130.74-9.75Q130.74-12.8 128.44-14.23 126.14-15.65 121.79-15.65L121.79-15.65 116.09-15.65ZM146.53 0.6L146.53 0.6Q143.48 0.6 141.46-1.2 139.43-3 139.43-6.3L139.43-6.3Q139.43-10.3 142.98-12.43 146.53-14.55 154.33-15.4L154.33-15.4Q154.33-16.55 154.11-17.65 153.88-18.75 153.33-19.6 152.78-20.45 151.81-20.98 150.83-21.5 149.33-21.5L149.33-21.5Q147.23-21.5 145.38-20.7 143.53-19.9 142.08-18.9L142.08-18.9 140.48-21.75Q142.18-22.85 144.63-23.88 147.08-24.9 150.03-24.9L150.03-24.9Q154.48-24.9 156.48-22.18 158.48-19.45 158.48-14.9L158.48-14.9 158.48 0 155.08 0 154.73-2.9 154.58-2.9Q152.83-1.45 150.83-0.43 148.83 0.6 146.53 0.6ZM147.73-2.7L147.73-2.7Q149.48-2.7 151.03-3.53 152.58-4.35 154.33-5.95L154.33-5.95 154.33-12.7Q151.28-12.3 149.21-11.75 147.13-11.2 145.86-10.45 144.58-9.7 144.01-8.72 143.43-7.75 143.43-6.6L143.43-6.6Q143.43-4.5 144.68-3.6 145.93-2.7 147.73-2.7ZM181.98 0L163.58 0 163.58-2.2 176.38-20.95 164.98-20.95 164.98-24.3 181.58-24.3 181.58-22.1 168.78-3.35 181.98-3.35 181.98 0ZM191.83 0.6L191.83 0.6Q188.78 0.6 186.75-1.2 184.73-3 184.73-6.3L184.73-6.3Q184.73-10.3 188.28-12.43 191.83-14.55 199.63-15.4L199.63-15.4Q199.63-16.55 199.4-17.65 199.18-18.75 198.63-19.6 198.08-20.45 197.1-20.98 196.13-21.5 194.63-21.5L194.63-21.5Q192.53-21.5 190.68-20.7 188.83-19.9 187.38-18.9L187.38-18.9 185.78-21.75Q187.48-22.85 189.93-23.88 192.38-24.9 195.33-24.9L195.33-24.9Q199.78-24.9 201.78-22.18 203.78-19.45 203.78-14.9L203.78-14.9 203.78 0 200.38 0 200.03-2.9 199.88-2.9Q198.13-1.45 196.13-0.43 194.13 0.6 191.83 0.6ZM193.03-2.7L193.03-2.7Q194.78-2.7 196.33-3.53 197.88-4.35 199.63-5.95L199.63-5.95 199.63-12.7Q196.58-12.3 194.5-11.75 192.43-11.2 191.15-10.45 189.88-9.7 189.3-8.72 188.73-7.75 188.73-6.6L188.73-6.6Q188.73-4.5 189.98-3.6 191.23-2.7 193.03-2.7ZM217.03 0.6L217.03 0.6Q213.98 0.6 211.95-1.2 209.93-3 209.93-6.3L209.93-6.3Q209.93-10.3 213.48-12.43 217.03-14.55 224.83-15.4L224.83-15.4Q224.83-16.55 224.6-17.65 224.38-18.75 223.83-19.6 223.28-20.45 222.3-20.98 221.33-21.5 219.83-21.5L219.83-21.5Q217.73-21.5 215.88-20.7 214.03-19.9 212.58-18.9L212.58-18.9 210.98-21.75Q212.68-22.85 215.13-23.88 217.58-24.9 220.53-24.9L220.53-24.9Q224.98-24.9 226.98-22.18 228.98-19.45 228.98-14.9L228.98-14.9 228.98 0 225.58 0 225.23-2.9 225.08-2.9Q223.33-1.45 221.33-0.43 219.33 0.6 217.03 0.6ZM218.23-2.7L218.23-2.7Q219.98-2.7 221.53-3.53 223.08-4.35 224.83-5.95L224.83-5.95 224.83-12.7Q221.78-12.3 219.7-11.75 217.63-11.2 216.35-10.45 215.08-9.7 214.5-8.72 213.93-7.75 213.93-6.6L213.93-6.6Q213.93-4.5 215.18-3.6 216.43-2.7 218.23-2.7ZM240.72 0L236.62 0 236.62-24.3 240.02-24.3 240.37-19.9 240.52-19.9Q241.77-22.2 243.55-23.55 245.32-24.9 247.42-24.9L247.42-24.9Q248.87-24.9 250.02-24.4L250.02-24.4 249.22-20.8Q248.62-21 248.12-21.1 247.62-21.2 246.87-21.2L246.87-21.2Q245.32-21.2 243.65-19.95 241.97-18.7 240.72-15.6L240.72-15.6 240.72 0Z" opacity="1" transform="matrix(1,0,0,1,0,0)" fill="#ffffff" class="wordmark-text-0" data-fill-palette-color="quaternary" id="text-0"></path></svg></g></svg></g></svg></g></svg></g><g transform="matrix(1,0,0,1,0,3.664718891326949)"><svg viewBox="0 0 94.77896415218602 85.84138148837033" height="85.84138148837033" width="94.77896415218602"><g><svg xmlns="http://www.w3.org/2000/svg" xmlns:xlink="http://www.w3.org/1999/xlink" version="1.1" x="0" y="0" viewBox="2 6.335 92.00499999999998 83.32900000000002" enable-background="new 0 0 96 96" xml:space="preserve" height="85.84138148837033" width="94.77896415218602" class="icon-icon-0" data-fill-palette-color="accent" id="icon-0"><path d="M32.524 18.46l8.716-8.712c0.78-0.78 0.78-2.048 0-2.828-0.78-0.78-2.048-0.78-2.828 0l-10.24 10.236c-0.152 0.152-0.248 0.328-0.336 0.508h-2.9C11.14 17.664 2 52.384 2 66.452c0 14.096 9.004 23.212 22.936 23.212h4.192c13.928 0 22.933-9.107 22.933-23.212C52.064 53.58 44.396 23.492 32.524 18.46z" fill="#0bc217" data-fill-palette-color="accent"></path><path d="M63.764 39.968c0.156 0.04 0.32 0.06 0.484 0.06 0.432 0 0.863-0.144 1.216-0.412 0.484-0.368 0.769-0.936 0.784-1.548 0.1-4.956 0.416-20.04-13.309-22.252-0.92-0.156-1.848 0.376-2.184 1.26-1.939 5.06-1.852 9.86 0.248 13.884C53.256 35.288 57.792 38.488 63.764 39.968z" fill="#0bc217" data-fill-palette-color="accent"></path><path d="M71.973 41.972l7.252-7.256c0.779-0.78 0.779-2.048 0-2.828-0.776-0.78-2.049-0.78-2.828 0l-9.448 9.456c-0.093 0.092-0.14 0.212-0.216 0.32h-3.097c-3.911 0-7.696 1.044-11.168 2.82 2.425 8.872 3.597 17.388 3.597 21.976 0 8.132-2.709 14.937-7.42 19.704 4.151 2.256 9.287 3.5 14.996 3.5h4.728c15.575 0 25.636-8.492 25.636-21.637C93.996 54.996 84.229 43.844 71.973 41.972z" fill="#0bc217" data-fill-palette-color="accent"></path></svg></g></svg></g></svg></g><defs></defs></svg><rect width="395.52" height="73.71518780364167" fill="none" stroke="none" visibility="hidden"></rect></g></svg></g></svg>